<?xml version="1.0" encoding="UTF-8" standalone="no"?>
<!-- Created with Inkscape (http://www.inkscape.org/) -->

<svg
   xmlns:dc="http://purl.org/dc/elements/1.1/"
   xmlns:cc="http://creativecommons.org/ns#"
   xmlns:rdf="http://www.w3.org/1999/02/22-rdf-syntax-ns#"
   xmlns:svg="http://www.w3.org/2000/svg"
   xmlns="http://www.w3.org/2000/svg"
   xmlns:sodipodi="http://sodipodi.sourceforge.net/DTD/sodipodi-0.dtd"
   xmlns:inkscape="http://www.inkscape.org/namespaces/inkscape"
   width="755.42816"
   height="430.48056"
   id="svg3175"
   sodipodi:version="0.32"
   inkscape:version="0.47 r22583"
   sodipodi:docname="yarn_adam_lowe_Pink_Ball_of_Yarn.svg"
   inkscape:output_extension="org.inkscape.output.svg.inkscape"
   version="1.0">
  <defs
     id="defs3177">
    <inkscape:perspective
       sodipodi:type="inkscape:persp3d"
       inkscape:vp_x="0 : 526.18109 : 1"
       inkscape:vp_y="0 : 1000 : 0"
       inkscape:vp_z="744.09448 : 526.18109 : 1"
       inkscape:persp3d-origin="372.04724 : 350.78739 : 1"
       id="perspective25" />
  </defs>
  <sodipodi:namedview
     id="base"
     pagecolor="#ffffff"
     bordercolor="#ffffff"
     borderopacity="0.0"
     inkscape:pageopacity="0.0"
     inkscape:pageshadow="0"
     inkscape:zoom="0.5305008"
     inkscape:cx="341.44587"
     inkscape:cy="116.18916"
     inkscape:document-units="px"
     inkscape:current-layer="layer1"
     inkscape:window-width="1600"
     inkscape:window-height="838"
     inkscape:window-x="-8"
     inkscape:window-y="-8"
     showgrid="false"
     inkscape:window-maximized="1" />
  <metadata
     id="metadata3180">
    <rdf:RDF>
      <cc:Work
         rdf:about="">
        <dc:format>image/svg+xml</dc:format>
        <dc:type
           rdf:resource="http://purl.org/dc/dcmitype/StillImage" />
        <dc:title></dc:title>
      </cc:Work>
    </rdf:RDF>
  </metadata>
  <g
     inkscape:label="Layer 1"
     inkscape:groupmode="layer"
     id="layer1"
     transform="translate(132.96375,-371.0959)">
    <path
       style="fill:none;fill-opacity:1;fill-rule:nonzero;stroke:#000000;stroke-width:9.29640769999999960;stroke-linecap:round;stroke-miterlimit:4;stroke-opacity:1;stroke-dasharray:none"
       id="path3185"
       d="m 79.459754,729.4738 c 22.088936,-29.78399 51.115196,-49.83671 79.627406,-65.85744 37.67806,-19.36656 77.91481,-25.48327 117.75439,-30.04366 42.45943,-5.65738 81.8464,11.80181 120.59771,33.07805 35.1422,21.31002 70.99948,39.60082 108.43843,51.63881 29.56508,9.20174 59.54565,9.93062 89.51655,5.31753 7.84381,-0.76671 15.03904,-4.7602 22.42197,-7.95172 l -31.19973,32.9813 c -7.03531,2.222 -13.95589,5.15455 -21.26933,5.36919 -29.61019,2.7217 -59.14621,0.70101 -88.15397,-8.63723 -37.24953,-12.64437 -72.79905,-32.0022 -107.95749,-52.90275 -38.26713,-20.87705 -77.1813,-37.20748 -119.01263,-31.99877 -40.80426,4.7057 -81.76519,12.48834 -119.85524,34.16607 -25.75499,15.7178 27.32653,-28.16662 -13.58097,12.52485 L 79.459754,729.4738 z" />
    <path
       sodipodi:type="arc"
       style="fill:#ffffff;fill-opacity:1;fill-rule:nonzero;stroke:#000000;stroke-width:7;stroke-linecap:round;stroke-miterlimit:4;stroke-opacity:1;stroke-dasharray:none"
       id="path3183"
       sodipodi:cx="215.71428"
       sodipodi:cy="639.50507"
       sodipodi:rx="158.57143"
       sodipodi:ry="158.57143"
       d="m 374.28571,639.50507 a 158.57143,158.57143 0 1 1 -317.142857,0 158.57143,158.57143 0 1 1 317.142857,0 z"
       transform="matrix(1.3280582,0,0,1.3280582,-204.20458,-262.96376)" />
    <path
       style="fill:#ffffff;stroke:#000000;stroke-width:7.96834898000000000;stroke-linecap:butt;stroke-linejoin:miter;stroke-miterlimit:4;stroke-opacity:1;stroke-dasharray:none;fill-opacity:1"
       d="m -32.497664,410.63311 c 0,0 72.978046,-9.63704 136.261784,-4.76906 63.28374,4.86799 116.87317,24.24098 116.87317,24.24098"
       id="path3212"
       sodipodi:nodetypes="czc" />
    <path
       style="fill:#ffffff;stroke:#000000;stroke-width:7.96834898000000000;stroke-linecap:butt;stroke-linejoin:miter;stroke-miterlimit:4;stroke-opacity:1;stroke-dasharray:none;fill-opacity:1"
       d="m -124.54673,552.24708 c 0,0 105.772077,-14.2219 208.884733,-7.1412 103.112667,7.08069 203.565917,35.46398 203.565917,35.46398"
       id="path3216"
       sodipodi:nodetypes="czc" />
    <path
       style="fill:#ffffff;stroke:#000000;stroke-width:7.96834898000000000;stroke-linecap:butt;stroke-linejoin:miter;stroke-miterlimit:4;stroke-opacity:1;stroke-dasharray:none;fill-opacity:1"
       d="m -106.84499,509.76288 c 0,0 95.15748,-16.98419 192.959617,-10.78859 97.802133,6.19562 198.248943,35.57103 198.248943,35.57103"
       id="path3218"
       sodipodi:nodetypes="czc" />
    <path
       style="fill:#ffffff;stroke:#000000;stroke-width:7.96834898000000000;stroke-linecap:butt;stroke-linejoin:miter;stroke-miterlimit:4;stroke-opacity:1;stroke-dasharray:none;fill-opacity:1"
       d="m -78.522195,458.42783 c 0,0 88.052287,-11.31454 173.463203,-5.11892 85.410932,6.1956 168.180472,29.90136 168.180472,29.90136"
       id="path3220"
       sodipodi:nodetypes="czc" />
    <path
       style="fill:#ffffff;stroke:#000000;stroke-width:7.96834898000000000;stroke-linecap:butt;stroke-linejoin:miter;stroke-miterlimit:4;stroke-opacity:1;stroke-dasharray:none;fill-opacity:1"
       d="m 77.253158,546.93654 c 0,0 9.540173,63.00093 3.344555,124.07194 -6.195604,61.07102 -28.126997,120.21214 -28.126997,120.21214"
       id="path3222"
       sodipodi:nodetypes="czc" />
    <path
       style="fill:#ffffff;stroke:#000000;stroke-width:7.96834898000000000;stroke-linecap:butt;stroke-linejoin:miter;stroke-miterlimit:4;stroke-opacity:1;stroke-dasharray:none;fill-opacity:1"
       d="m 123.27769,548.70673 c 0,0 12.10618,59.39905 6.35311,120.47007 -5.75305,61.07102 -29.36537,123.814 -29.36537,123.814"
       id="path3226"
       sodipodi:nodetypes="czc" />
    <path
       style="fill:#ffffff;stroke:#000000;stroke-width:7.96834898000000000;stroke-linecap:butt;stroke-linejoin:miter;stroke-miterlimit:4;stroke-opacity:1;stroke-dasharray:none;fill-opacity:1"
       d="m 169.30223,554.01725 c 0,0 13.1249,54.08985 8.25692,111.62052 -4.86797,57.53068 -27.72885,118.50216 -27.72885,118.50216"
       id="path3228"
       sodipodi:nodetypes="czc" />
    <path
       style="fill:#ffffff;stroke:#000000;stroke-width:7.96834898000000000;stroke-linecap:butt;stroke-linejoin:miter;stroke-miterlimit:4;stroke-opacity:1;stroke-dasharray:none;fill-opacity:1"
       d="m 217.09694,562.86812 c 0,0 10.43118,37.64123 5.5632,86.76358 -4.86797,49.12233 -25.03512,109.72579 -25.03512,109.72579"
       id="path3230"
       sodipodi:nodetypes="czc" />
    <path
       style="fill:#ffffff;stroke:#000000;stroke-width:7.96834898000000000;stroke-linecap:butt;stroke-linejoin:miter;stroke-miterlimit:4;stroke-opacity:1;stroke-dasharray:none;fill-opacity:1"
       d="m 257.81096,575.25934 c 0,0 7.83136,31.08512 4.73354,65.60354 -3.0978,34.51839 -17.12476,72.47007 -17.12476,72.47007"
       id="path3232"
       sodipodi:nodetypes="czc" />
    <path
       style="fill:#ffffff;stroke:#000000;stroke-width:7.96834898000000000;stroke-linecap:butt;stroke-linejoin:miter;stroke-miterlimit:4;stroke-opacity:1;stroke-dasharray:none;fill-opacity:1"
       d="m 27.256986,543.64856 c 0,0 9.290033,18.22586 22.80778,34.11512 13.517733,15.88928 31.263167,29.44196 31.263167,29.44196"
       id="path3238"
       sodipodi:nodetypes="czc" />
    <path
       style="fill:#ffffff;stroke:#000000;stroke-width:7.96834898000000000;stroke-linecap:butt;stroke-linejoin:miter;stroke-miterlimit:4;stroke-opacity:1;stroke-dasharray:none;fill-opacity:1"
       d="m -14.481984,543.64856 c 0,0 18.909278,38.27921 42.861764,68.16052 23.952472,29.88131 52.948153,51.36472 52.948153,51.36472"
       id="path3240"
       sodipodi:nodetypes="czc" />
    <path
       style="fill:#ffffff;stroke:#000000;stroke-width:7.96834898000000000;stroke-linecap:butt;stroke-linejoin:miter;stroke-miterlimit:4;stroke-opacity:1;stroke-dasharray:none;fill-opacity:1"
       d="m -54.32373,545.54579 c 0,0 31.847221,55.02076 63.8629059,96.52258 32.0156981,41.50182 64.1998471,69.48469 64.1998471,69.48469"
       id="path3242"
       sodipodi:nodetypes="czc" />
    <path
       style="fill:#ffffff;stroke:#000000;stroke-width:7.96834898000000000;stroke-linecap:butt;stroke-linejoin:miter;stroke-miterlimit:4;stroke-opacity:1;stroke-dasharray:none;fill-opacity:1"
       d="m -90.37102,548.39163 c 0,0 35.176868,63.97145 74.070008,114.72225 38.893127,50.75079 81.50252,88.28093 81.50252,88.28093"
       id="path3244"
       sodipodi:nodetypes="czc" />
    <path
       style="fill:#ffffff;stroke:#000000;stroke-width:7.96834898000000000;stroke-linecap:butt;stroke-linejoin:miter;stroke-miterlimit:4;stroke-opacity:1;stroke-dasharray:none;fill-opacity:1"
       d="m -123.57247,562.62083 c 0,0 35.251558,68.6705 78.88776,125.82443 43.6361943,57.15394 95.657031,102.79129 95.657031,102.79129"
       id="path3246"
       sodipodi:nodetypes="czc" />
    <path
       style="fill:#ffffff;stroke:#000000;stroke-width:7.96834898000000000;stroke-linecap:butt;stroke-linejoin:miter;stroke-miterlimit:4;stroke-opacity:1;stroke-dasharray:none;fill-opacity:1"
       d="m -127.36693,614.79454 c 0,0 28.17763,52.35718 63.039164,95.28192 34.861514,42.92474 76.406946,76.41704 76.406946,76.41704"
       id="path3248"
       sodipodi:nodetypes="czc" />
  </g>
</svg>
